{"title":"Red Sands 2009 DVDRip Xvid AC3 LKRG","uid":10740056,"size":867219185,"categoryP":"video","categoryS":"movies","magnet":"?xt=urn:btih:016a30f5d7dcbe3037ddcdb25a54cc1973542c21&amp;dn=Red+Sands+2009+DVDRip+Xvid+AC3+LKRG&amp;tr=udp%3A%2F%2Ftracker.openbittorrent.com%3A80&amp;tr=udp%3A%2F%2Fopen.demonii.com%3A1337&amp;tr=udp%3A%2F%2Ftracker.coppersurfer.tk%3A6969&amp;tr=udp%3A%2F%2Fexodus.desync.com%3A6969","seeders":0,"leechers":2,"uploader":"inovai","files":2,"time":1407740838,"description":"PLOT\n\nDuring a mission in the Middle East, a group of US soldiers destroy a statue out of boredom only\nto then be visited by something the next day.\n\nScreenshots:\n &lt;a href=&quot;\nhttp://img.primetimeshow.in/share.php?id=5875_53E84EEF&quot; rel=&quot;nofollow&quot; target=&quot;_NEW&quot;&gt;\nhttp://img.primetimeshow.in/share.php?id=5875_53E84EEF&lt;/a&gt;\n &lt;a href=&quot;\nhttp://img.primetimeshow.in/share.php?id=C698_53E84EEF&quot; rel=&quot;nofollow&quot; target=&quot;_NEW&quot;&gt;\nhttp://img.primetimeshow.in/share.php?id=C698_53E84EEF&lt;/a&gt;\n &lt;a href=&quot;\nhttp://img.primetimeshow.in/image.php?id=E707_53E84EEF&quot; rel=&quot;nofollow&quot; target=&quot;_NEW&quot;&gt;\nhttp://img.primetimeshow.in/image.php?id=E707_53E84EEF&lt;/a&gt;\n &lt;a href=&quot;\nhttp://img.primetimeshow.in/share.php?id=83D5_53E84EEF&quot; rel=&quot;nofollow&quot; target=&quot;_NEW&quot;&gt;\nhttp://img.primetimeshow.in/share.php?id=83D5_53E84EEF&lt;/a&gt;\n\nGeneral Info:\nRuntime ..........: 1h 28mn\nFile Size ........: 827 MB\nResolution .......: 720 x 464\nIMDb URL .........: http://www.imdb.com/title/tt1103256/?ref_=nv_sr_1\nGenre ............: Action,Horror,Thriller\nLanguage .........: English\nSubtitles ........: None\nComplete name : Red Sands 2009 DVDRip Xvid AC3 LKRGRSands_LKRG.avi\nFormat : AVI\nFormat/Info : Audio Video Interleave\nFile size : 827 MiB\nDuration : 1h 28mn\nOverall bit rate : 1 303 Kbps\nWriting application : VirtualDubMod 1.5.10.2 (build 2540/release)\nWriting library : VirtualDubMod build 2540/release\nVideo\nID : 0\nFormat : MPEG-4 Visual\nFormat profile : Advanced Simple@L5\nFormat settings, BVOP : 2\nFormat settings, QPel : No\nFormat settings, GMC : No warppoints\nFormat settings, Matrix : Default (H.263)\nMuxing mode : Packed bitstream\nCodec ID : XVID\nCodec ID/Hint : XviD\nDuration : 1h 28mn\nBit rate : 844 Kbps\nWidth : 720 pixels\nHeight : 464 pixels\nDisplay aspect ratio : 1.881\nFrame rate : 29.970 fps\nColor space : YUV\nChroma subsampling : 4:2:0\nBit depth : 8 bits\nScan type : Progressive\nCompression mode : Lossy\nBits/(Pixel*Frame) : 0.084\nStream size : 535 MiB (65%)\nWriting library : XviD 1.2.1 (UTC 2008-12-04)\nAudio\nID : 1\nFormat : AC-3\nFormat/Info : Audio Coding 3\nMode extension : CM (complete main)\nFormat settings, Endianness : Big\nCodec ID : 2000\nDuration : 1h 28mn\nBit rate mode : Constant\nBit rate : 448 Kbps\nChannel(s) : 6 channels\nChannel positions : Front: L C R, Side: L R, LFE\nSampling rate : 48.0 KHz\nBit depth : 16 bits\nCompression mode : Lossy\nStream size : 284 MiB (34%)\nAlignment : Split accross interleaves\nInterleave, duration : 33 ms (1.00 video frame)\nInterleave, preload duration : 500 ms","torrent":{"xt":"urn:btih:016a30f5d7dcbe3037ddcdb25a54cc1973542c21","amp;dn":"Red+Sands+2009+DVDRip+Xvid+AC3+LKRG","amp;tr":["udp%3A%2F%2Ftracker.openbittorrent.com%3A80","udp%3A%2F%2Fopen.demonii.com%3A1337","udp%3A%2F%2Ftracker.coppersurfer.tk%3A6969","udp%3A%2F%2Fexodus.desync.com%3A6969"],"infoHash":"016a30f5d7dcbe3037ddcdb25a54cc1973542c21","infoHashBuffer":{"type":"Buffer","data":[1,106,48,245,215,220,190,48,55,221,205,178,90,84,204,25,115,84,44,33]},"announce":[],"urlList":[]}}